<svg aria-hidden="true" style="position: absolute; width: 0; height: 0; overflow: hidden;" version="1.1" xmlns="http://www.w3.org/2000/svg" xmlns:xlink="http://www.w3.org/1999/xlink">
<defs>
<symbol id="love" viewBox="0 0 35 32">
<path d="M17.425 30.84c1.49 1.018 8.028-5.915 8.943-6.979 1.17-1.36 3.164-3.658 4.489-4.966s2.584-2.977 3.060-4.958c0.476-1.981 0.443-4.089-0.097-6.046s-1.559-3.672-2.925-4.917c-1.366-1.246-3.013-1.964-4.725-2.061s-3.051 0.693-4.507 1.779-5.916 6.65-4.041 8.771c0.43-1.178-2.556 13.077-1.647 12.398s4.619 0.458 5.688 0.519c1.069 0.060 1.739-2.422 2.592-1.645s3.988-5.062 4.325-3.84c0.337 1.222 0.848-2.167 0.551-0.931s0.827-2.757 0-1.941-1.923 2.156-2.529 2.871c-0.62 0.732-8.055 9.215-8.984 9.215l-0.193 2.731z"></path>
<path d="M17.818 30.828c-0.007 0.008-0.015 0.015-0.024 0.021-1.516 0.968-8.017-5.927-8.929-6.988-1.169-1.36-3.164-3.658-4.489-4.966s-2.584-2.977-3.060-4.958-0.443-4.089 0.097-6.046c0.539-1.957 1.559-3.672 2.925-4.917s3.013-1.964 4.725-2.061c1.712-0.097 3.051 0.693 4.507 1.779 1.417 1.057 5.677 6.352 4.18 8.591-0.057 0.085-0.211 0.008-0.113-0.020 0.498-0.146 4.413 3.283 3.596 2.674-0.909-0.678 2.297 1.403 1.228 1.463s-0.376-2.241-1.228-1.463c-0.852 0.778 0.337 3.004 0 4.226s-3.723 3.159-3.425 4.396c0.297 1.236 3.138-0.293 3.965 0.523s-0.284-0.255 0.321 0.46c0.539 0.637 0.315 1.108 0.858 1.22 0.114 0.023 0.177 0.164 0.099 0.25l-5.233 5.815z"></path>
<path d="M26.554 15.663h3.406v3.772h-3.406v-3.771z"></path>
<path d="M23.86 18.088h4.657v2.752h-4.657v-2.752z"></path>
<path d="M24.13 24.967c0 0.707-0.551 1.28-1.232 1.28s-1.232-0.573-1.232-1.28c0-0.707 0.551-1.28 1.232-1.28s1.232 0.573 1.232 1.28z"></path>
<path d="M21.505 24.771l1.577 1.323-3.103 3.698-1.577-1.323 3.103-3.698z"></path>
<path d="M18.473 28.921h1.001v0.693h-1.001v-0.693z"></path>
<path d="M18.669 29.046l0.611 0.768-1.355 1.078-0.611-0.768 1.355-1.078z"></path>
</symbol>
</defs>
</svg>
